<mxfile host="app.diagrams.net" modified="2023-09-01T16:52:57.712Z" agent="Mozilla/5.0 (Windows NT 10.0; Win64; x64) AppleWebKit/537.36 (KHTML, like Gecko) Chrome/116.0.0.0 Safari/537.36 Edg/116.0.1938.62" version="21.7.1" etag="kQovisZCQiiCKoWWW2Gy" type="github">
  <diagram name="Page-1" id="PbDMRxuE51AuC_5CFzaB">
    <mxGraphModel>
      <root>
        <mxCell id="0" />
        <mxCell id="1" parent="0" />
      </root>
    </mxGraphModel>
  </diagram>
</mxfile>
